# AST/ASF file generated using VICON BodyLanguage
# -----------------------------------------------
:version 1.10
:name VICON
:units
  mass 1.0
  length 0.45
  angle deg
:documentation
   .ast/.asf automatically generated from VICON data using
   VICON BodyBuilder and BodyLanguage model FoxedUp or BRILLIANT.MOD
:root
   order TX TY TZ RX RY RZ
   axis XYZ
   position 0 0 0  
   orientation 0 0 0 
:bonedata
  begin
     id 1 
     name lhipjoint
     direction 0.661853 -0.702389 0.261917 
     length 2.64193 
     axis 0 0 0  XYZ
  end
  begin
     id 2 
     name lfemur
     direction 0.34202 -0.939693 0  
     length 7.01722  
     axis 0 0 20  XYZ
    dof rx ry rz
    limits (-160.0 20.0)
           (-70.0 70.0)
           (-60.0 70.0)
  end
  begin
     id 3 
     name ltibia
     direction 0.34202 -0.939693 0   
     length 8.25008   
     axis 0 0 20   XYZ
    dof rx
    limits (-10.0 170.0)
  end
  begin
     id 4 
     name lfoot
     direction 0.0709916 -0.195048 0.978221   
     length 2.31941   
     axis -90 7.62852e-016 20   XYZ
    dof rx rz
    limits (-45.0 90.0)
           (-70.0 20.0)
  end
  begin
     id 5 
     name ltoes
     direction 1.53586e-011 -4.22017e-011 1   
     length 1.16486   
     axis -90 7.62852e-016 20   XYZ
    dof rx
    limits (-90.0 20.0)
  end
  begin
     id 6 
     name rhipjoint
     direction -0.638185 -0.721362 0.268992   
     length 2.57244  
     axis 0 0 0  XYZ 
  end
  begin
     id 7 
     name rfemur
     direction -0.34202 -0.939693 0   
     length 7.07017   
     axis 0 0 -20   XYZ
    dof rx ry rz
    limits (-160.0 20.0)
           (-70.0 70.0)
           (-70.0 60.0)
  end
  begin
     id 8 
     name rtibia
     direction -0.34202 -0.939693 0   
     length 8.20386   
     axis 0 0 -20   XYZ
    dof rx
    limits (-10.0 170.0)
 end
 begin
     id 9 
     name rfoot
     direction -0.0822429 -0.225961 0.970658   
     length 2.32215  
     axis -90 -7.62852e-016 -20   XYZ
    dof rx rz
    limits (-45.0 90.0)
           (-20.0 70.0)
  end
  begin
     id 10 
     name rtoes
     direction -1.53597e-011 -4.21689e-011 1   
     length 1.16333   
     axis -90 -7.62852e-016 -20   XYZ
    dof rx
    limits (-90.0 20.0)
  end
  begin
     id 11 
     name lowerback
     direction -0.0131557 0.998589 -0.0514484   
     length 2.14993   
     axis 0 0 0   XYZ
    dof rx ry rz
    limits (-20.0 45.0)
           (-30.0 30.0)
           (-30.0 30.0)
  end
  begin
     id 12 
     name upperback
     direction -0.000776481 0.999993 0.00352685   
     length 2.15301   
     axis 0 0 0   XYZ
    dof rx ry rz
    limits (-20.0 45.0)
           (-30.0 30.0)
           (-30.0 30.0)
  end
  begin
     id 13 
     name thorax
     direction 0.00438186 0.999609 0.0276143   
     length 2.15424   
     axis 0 0 0   XYZ
    dof rx ry rz
    limits (-20.0 45.0)
           (-30.0 30.0)
           (-30.0 30.0)
  end
  begin
     id 14 
     name lowerneck
     direction -0.0488006 0.998094 0.0377807   
     length 1.90481   
     axis 0 0 0   XYZ
    dof rx ry rz
    limits (-20.0 45.0)
           (-30.0 30.0)
           (-30.0 30.0)
  end
  begin
     id 15 
     name upperneck
     direction 0.0443769 0.990702 -0.12861   
     length 1.91305   
     axis 0 0 0   XYZ
    dof rx ry rz
    limits (-20.0 45.0)
           (-30.0 30.0)
           (-30.0 30.0)
  end
  begin
     id 16
     name head
     direction 0.0165599 0.998647 -0.0492982  
     length 1.92369  
     axis 0 0 0   XYZ
    dof rx ry rz
    limits (-20.0 45.0)
           (-30.0 30.0)
           (-30.0 30.0)
  end
  begin
     id 17 
     name lclavicle
     direction 0.911936 0.410197 -0.0105506  
     length 3.52622  
     axis 0 0 0   XYZ
    dof ry rz
    limits (-20.0 10.0)
           (0.0 20.0)
  end
  begin
     id 18 
     name lhumerus
     direction 1 -4.48974e-011 -2.48591e-028   
     length 5.47651   
     axis 180 -30 -90   XYZ
    dof rx ry rz
    limits (-60.0 90.0)
           (-90.0 90.0)
           (-90.0 90.0)
  end
  begin
     id 19
     name lradius
     direction 1 -4.48938e-011 -4.40099e-027   
     length 3.09058   
     axis 180 -30 -90   XYZ
    dof rx
    limits (-10.0 170.0)
  end
  begin
     id 20
     name lwrist
     direction 1 -4.49042e-011 -2.99852e-027   
     length 1.54529   
     axis 1.95339e-015 90 90   XYZ
    dof ry
    limits (-180.0 0.0)
 end
  begin
     id 21 
     name lhand
     direction 1 -4.48815e-011 -5.98193e-027   
     length 0.771611   
     axis 3.82337e-015 90 90   XYZ
    dof rx rz
    limits (-90.0 90.0)
           (-45.0 45.0)
  end
  begin
     id 22 
     name lfingers
     direction 1 -4.49034e-011 -1.1993e-026   
     length 0.622093   
     axis 7.64668e-015 90 90   XYZ
    dof rx
    limits (0.0 90.0)
  end
  begin
     id 23
     name lthumb
     direction 0.707107 -6.34867e-011 0.707107   
     length 0.893204   
     axis -90 45 -1.62303e-014   XYZ
    dof rx rz
    limits (-45.0 45.0)
           (-45.0 45.0)
  end
  begin
     id 24 
     name rclavicle
     direction -0.93442 0.355634 -0.0195692   
     length 3.62463  
     axis 0 0 0   XYZ 
    dof ry rz
    limits (-10.0 20.0)
           (-20.0 0.0)
  end
  begin
     id 25 
     name rhumerus
     direction -1 -4.48957e-011 -1.19147e-027  
     length 5.14182   
     axis 180 30 90   XYZ
    dof rx ry rz
    limits (-90.0 60.0)
           (-90.0 90.0)
           (-90.0 90.0)
  end
  begin
     id 26 
     name rradius
     direction -1 -4.48952e-011 -3.81062e-027   
     length 3.35565   
     axis 180 30 90   XYZ
    dof rx
    limits (-10.0 170.0)
  end
  begin
     id 27 
     name rwrist
     direction -1 -4.48973e-011 -2.99621e-027   
     length 1.67782   
     axis 1.95339e-015 -90 -90   XYZ
    dof ry
    limits (-180.0 0.0)
  end
  begin
     id 28
     name rhand
     direction -1 -4.48895e-011 -5.98727e-027   
     length 0.801042   
     axis 3.82337e-015 -90 -90   XYZ
    dof rx rz
    limits (-90.0 90.0)
           (-45.0 45.0)
  end
  begin
     id 29
     name rfingers
     direction -1 -4.49065e-011 -1.19972e-026   
     length 0.645821   
     axis 7.64668e-015 -90 -90   XYZ
    dof rx
    limits (0.0 90.0)
  end
  begin
     id 30
     name rthumb
     direction -0.707107 -6.34957e-011 0.707107   
     length 0.927273   
     axis -90 -45 1.62303e-014   XYZ
    dof rx rz
    limits (-45.0 45.0)
           (-45.0 45.0)
  end
:hierarchy
  begin
    root lhipjoint rhipjoint lowerback
    lhipjoint lfemur
    lfemur ltibia
    ltibia lfoot
    lfoot ltoes
    rhipjoint rfemur
    rfemur rtibia
    rtibia rfoot
    rfoot rtoes
    lowerback upperback
    upperback thorax
    thorax lowerneck lclavicle rclavicle
    lowerneck upperneck
    upperneck head
    lclavicle lhumerus
    lhumerus lradius
    lradius lwrist
    lwrist lhand lthumb
    lhand lfingers
    rclavicle rhumerus
    rhumerus rradius
    rradius rwrist
    rwrist rhand rthumb
    rhand rfingers
  end

#!OML:ASF E:\Style4\Style4.ASF
:FULLY-SPECIFIED
:DEGREES
349
root -0.483105 18.0291 -2.12129 -0.823529 -0.816676 0.671997
lowerback 5.07603 3.46548 -4.41226
upperback 2.88679 4.40643 -4.23044
thorax 0.142576 2.18415 -2.10604
lowerneck 0.76288 -3.55434 -5.87543
upperneck 11.0653 -4.38954 -2.0438
head 3.5438 -2.46984 0.217817
rclavicle -1.96797e-014 3.65764e-014
rhumerus 54.8481 -35.8666 -32.0677
rradius 63.308
rwrist -59.7841
rhand -29.707 10.1853
rfingers 7.12502
rthumb -3.0345 -19.7728
lclavicle -1.96797e-014 3.65764e-014
lhumerus -49.3581 -45.3757 101.646
lradius 108.315
lwrist 32.4518
lhand -8.36325 20.7466
lfingers 7.12502
lthumb 17.5593 49.9736
rfemur -7.83105 2.2913 19.0694
rtibia 23.1196
rfoot -13.6396 -13.2474
rtoes -9.50404
lfemur -4.40175 -1.82769 -19.1943
ltibia 20.9593
lfoot -16.4597 12.821
ltoes -14.1392
350
root -0.482017 18.0302 -2.12009 -0.820403 -0.833667 0.706646
lowerback 5.04684 3.45483 -4.46279
upperback 2.90271 4.39326 -4.2074
thorax 0.169694 2.17629 -2.05121
lowerneck 0.728557 -3.52988 -5.86557
upperneck 11.0756 -4.34846 -2.10572
head 3.551 -2.45176 0.196377
rclavicle -5.04913e-014 5.40694e-014
rhumerus 55.0487 -35.8762 -32.4531
rradius 63.5618
rwrist -59.5249
rhand -29.6969 10.0349
rfingers 7.12502
rthumb -3.02478 -19.9234
lclavicle -5.04913e-014 5.40694e-014
lhumerus -49.2951 -45.3211 101.613
lradius 108.291
lwrist 32.436
lhand -8.33116 20.8049
lfingers 7.12502
lthumb 17.5902 50.0291
rfemur -7.84123 2.29579 19.0248
rtibia 23.1395
rfoot -13.6623 -13.2126
rtoes -9.54698
lfemur -4.3738 -1.79534 -19.2364
ltibia 20.9161
lfoot -16.4661 12.7777
ltoes -14.0431
351
root -0.481355 18.0306 -2.11889 -0.838813 -0.843297 0.739833
lowerback 5.05141 3.46523 -4.48086
upperback 2.91617 4.40679 -4.19838
thorax 0.179092 2.18256 -2.03249
lowerneck 0.76955 -3.51444 -5.87706
upperneck 11.0161 -4.33232 -2.10552
head 3.5223 -2.44252 0.200567
rclavicle -3.08116e-014 6.20208e-014
rhumerus 55.1584 -35.9058 -32.7789
rradius 63.8023
rwrist -59.3095
rhand -29.6251 9.9759
rfingers 7.12502
rthumb -2.9554 -19.9834
lclavicle -3.08116e-014 6.20208e-014
lhumerus -49.2588 -45.3152 101.61
lradius 108.303
lwrist 32.4535
lhand -8.37601 20.8388
lfingers 7.12502
lthumb 17.547 50.0669
rfemur -7.82367 2.28578 18.9837
rtibia 23.1665
rfoot -13.7059 -13.1732
rtoes -9.45956
lfemur -4.33972 -1.80308 -19.2799
ltibia 20.8968
lfoot -16.3935 12.7869
ltoes -14.1132
352
root -0.482944 18.0299 -2.12466 -0.789578 -0.727542 0.766355
lowerback 5.0938 3.43133 -4.5139
upperback 2.89542 4.3557 -4.1847
thorax 0.130436 2.15715 -2.00112
lowerneck 0.814344 -3.4983 -5.93296
upperneck 10.9816 -4.31768 -2.06093
head 3.50442 -2.43482 0.226489
rclavicle -1.78906e-014 -1.27222e-014
rhumerus 55.1365 -35.91 -32.7189
rradius 63.869
rwrist -59.3181
rhand -29.6091 10.0646
rfingers 7.12502
rthumb -2.93998 -19.8949
lclavicle -1.78906e-014 -1.27222e-014
lhumerus -49.2257 -45.3196 101.617
lradius 108.315
lwrist 32.4575
lhand -8.38278 20.9333
lfingers 7.12502
lthumb 17.5405 50.162
rfemur -7.90577 2.21531 18.9549
rtibia 23.205
rfoot -13.6996 -13.1967
rtoes -9.44884
lfemur -4.42742 -1.8756 -19.3058
ltibia 20.8769
lfoot -16.2512 12.7802
ltoes -14.3134
353
root -0.484854 18.0297 -2.13024 -0.709083 -0.599652 0.793373
lowerback 5.10798 3.38633 -4.54657
upperback 2.86404 4.29141 -4.18205
thorax 0.0874415 2.12527 -1.97906
lowerneck 0.827869 -3.48506 -5.9965
upperneck 10.9882 -4.30438 -2.00366
head 3.50758 -2.42886 0.256645
rclavicle 6.16232e-015 -1.59028e-014
rhumerus 55.1581 -35.9124 -32.736
rradius 63.9432
rwrist -59.2803
rhand -29.6206 10.1012
rfingers 7.12502
rthumb -2.9511 -19.8582
lclavicle 6.16232e-015 -1.59028e-014
lhumerus -49.186 -45.3189 101.607
lradius 108.318
lwrist 32.4785
lhand -8.35941 21.083
lfingers 7.12502
lthumb 17.563 50.3097
rfemur -8.01319 2.17621 18.9241
rtibia 23.2263
rfoot -13.7191 -13.2456
rtoes -9.24256
lfemur -4.55021 -1.96149 -19.3264
ltibia 20.8651
lfoot -16.252 12.716
ltoes -13.8763
354
root -0.482774 18.0299 -2.12826 -0.743809 -0.655735 0.829039
lowerback 5.13812 3.41889 -4.5295
upperback 2.88009 4.33405 -4.20799
thorax 0.0906682 2.14691 -2.01889
lowerneck 0.761621 -3.48678 -5.96849
upperneck 11.0406 -4.30271 -1.98495
head 3.53811 -2.42791 0.256082
rclavicle 2.26615e-014 -1.27222e-014
rhumerus 55.1304 -35.9593 -32.7339
rradius 64.0118
rwrist -59.2463
rhand -29.5352 10.1157
rfingers 7.12502
rthumb -2.86856 -19.8448
lclavicle 2.26615e-014 -1.27222e-014
lhumerus -49.1837 -45.357 101.59
lradius 108.374
lwrist 32.5237
lhand -8.39482 21.1838
lfingers 7.12502
lthumb 17.5289 50.4136
rfemur -7.9843 2.18568 18.8771
rtibia 23.2384
rfoot -13.7588 -13.2024
rtoes -9.21149
lfemur -4.49009 -1.94777 -19.3781
ltibia 20.8642
lfoot -16.35 12.7903
ltoes -14.0417
355
root -0.481867 18.0314 -2.12598 -0.759751 -0.680435 0.797652
lowerback 5.12689 3.43332 -4.44956
upperback 2.90561 4.3594 -4.21491
thorax 0.129628 2.16015 -2.06969
lowerneck 0.72793 -3.48205 -5.92727
upperneck 11.0386 -4.2963 -1.97328
head 3.54257 -2.42283 0.252474
rclavicle -4.96962e-014 3.18055e-015
rhumerus 55.0389 -36.0129 -32.6306
rradius 64.0874
rwrist -59.254
rhand -29.5392 10.17
rfingers 7.12502
rthumb -2.87243 -19.7904
lclavicle -4.96962e-014 3.18055e-015
lhumerus -49.1659 -45.3876 101.541
lradius 108.426
lwrist 32.5656
lhand -8.35074 21.2044
lfingers 7.12502
lthumb 17.5713 50.4303
rfemur -7.95564 2.19411 18.9083
rtibia 23.2189
rfoot -13.7877 -13.1792
rtoes -9.13133
lfemur -4.45515 -1.968 -19.3486
ltibia 20.8595
lfoot -16.4068 12.8285
ltoes -14.071
356
root -0.481795 18.0316 -2.12677 -0.732222 -0.641022 0.79681
lowerback 5.11851 3.41288 -4.43565
upperback 2.89908 4.33316 -4.20064
thorax 0.127256 2.14717 -2.06092
lowerneck 0.771018 -3.45695 -6.00508
upperneck 11.0172 -4.27057 -1.90728
head 3.53065 -2.41015 0.289303
rclavicle -1.94809e-014 1.74931e-014
rhumerus 55.0387 -36.0055 -32.5903
rradius 64.0987
rwrist -59.1914
rhand -29.5375 10.1478
rfingers 7.12502
rthumb -2.87084 -19.8126
lclavicle -1.94809e-014 1.74931e-014
lhumerus -49.14 -45.5342 101.507
lradius 108.341
lwrist 32.4237
lhand -8.20438 21.0634
lfingers 7.12502
lthumb 17.7122 50.2767
rfemur -7.96569 2.18176 18.9037
rtibia 23.1835
rfoot -13.7761 -13.1732
rtoes -9.07678
lfemur -4.4985 -2.01448 -19.3451
ltibia 20.866
lfoot -16.4511 12.7893
ltoes -13.6952
357
root -0.482124 18.0322 -2.12494 -0.729937 -0.662461 0.732758
lowerback 5.09525 3.40721 -4.38269
upperback 2.90108 4.32997 -4.16012
thorax 0.142725 2.14569 -2.04655
lowerneck 0.859112 -3.43493 -6.08116
upperneck 10.9527 -4.25388 -1.83989
head 3.49526 -2.40057 0.327365
rclavicle -2.32578e-014 -9.54166e-015
rhumerus 55.0735 -35.9862 -32.5725
rradius 64.0892
rwrist -59.1332
rhand -29.5521 10.147
rfingers 7.12502
rthumb -2.88495 -19.8133
lclavicle -2.32578e-014 -9.54166e-015
lhumerus -49.1065 -45.6568 101.474
lradius 108.243
lwrist 32.3021
lhand -8.11473 20.8272
lfingers 7.12502
lthumb 17.7984 50.0327
rfemur -7.93931 2.22078 18.9808
rtibia 23.1367
rfoot -13.754 -13.1865
rtoes -8.83885
lfemur -4.51894 -1.979 -19.2681
ltibia 20.9144
lfoot -16.4247 12.7805
ltoes -14.0281
358
root -0.482791 18.0323 -2.12741 -0.711351 -0.68283 0.667717
lowerback 5.11486 3.41379 -4.31637
upperback 2.88421 4.33917 -4.14787
thorax 0.118132 2.15136 -2.07288
lowerneck 0.953414 -3.41606 -6.0645
upperneck 10.8857 -4.24412 -1.7754
head 3.45486 -2.39083 0.3485
rclavicle 3.35946e-014 2.06736e-014
rhumerus 55.0966 -36.0018 -32.5963
rradius 64.0602
rwrist -59.0894
rhand -29.5804 10.0816
rfingers 7.12502
rthumb -2.91228 -19.8783
lclavicle 3.35946e-014 2.06736e-014
lhumerus -49.1759 -45.4994 101.517
lradius 108.36
lwrist 32.3875
lhand -8.22888 20.7589
lfingers 7.12502
lthumb 17.6886 49.9744
rfemur -7.9521 2.25004 19.0644
rtibia 23.0909
rfoot -13.6975 -13.2348
rtoes -9.0861
lfemur -4.59616 -1.93 -19.1833
ltibia 20.9884
lfoot -16.3811 12.7709
ltoes -14.1477
359
root -0.484765 18.0323 -2.13204 -0.649276 -0.598435 0.630782
lowerback 5.12316 3.37789 -4.28653
upperback 2.85404 4.29039 -4.13327
thorax 0.0829958 2.12775 -2.07335
lowerneck 1.01126 -3.40021 -6.07455
upperneck 10.8694 -4.23084 -1.73825
head 3.43923 -2.38274 0.364022
rclavicle 3.61788e-014 -4.45278e-014
rhumerus 55.0927 -36.0066 -32.5774
rradius 64.0542
rwrist -59.1287
rhand -29.5969 10.0503
rfingers 7.12502
rthumb -2.92819 -19.9094
lclavicle 3.61788e-014 -4.45278e-014
lhumerus -49.4371 -45.2706 101.647
lradius 108.611
lwrist 32.4331
lhand -8.36926 20.7847
lfingers 7.12502
lthumb 17.5535 50.0122
rfemur -8.00621 2.24382 19.1124
rtibia 23.0392
rfoot -13.6738 -13.3326
rtoes -9.04173
lfemur -4.75983 -1.99233 -19.1317
ltibia 21.091
lfoot -16.3823 12.765
ltoes -14.0766
360
root -0.485329 18.0321 -2.13465 -0.642862 -0.533844 0.595317
lowerback 5.17148 3.3566 -4.22001
upperback 2.84213 4.26086 -4.13778
thorax 0.0486717 2.1143 -2.11669
lowerneck 1.0696 -3.39476 -6.03406
upperneck 10.834 -4.23123 -1.72342
head 3.41492 -2.37973 0.363425
rclavicle -8.34896e-015 1.43125e-014
rhumerus 55.0248 -36.043 -32.4889
rradius 64.0191
rwrist -59.2244
rhand -29.4779 10.0119
rfingers 7.12502
rthumb -2.81327 -19.9493
lclavicle -8.34896e-015 1.43125e-014
lhumerus -49.8554 -45.2371 101.818
lradius 108.879
lwrist 32.3041
lhand -8.44714 20.7052
lfingers 7.12502
lthumb 17.4786 49.9394
rfemur -7.99262 2.23567 19.1502
rtibia 23.0007
rfoot -13.6519 -13.3414
rtoes -8.88599
lfemur -4.8505 -2.0541 -19.0924
ltibia 21.2186
lfoot -16.467 12.7404
ltoes -13.9599
